Normalized EMG Linear Envelopes
nRows=49
nColumns=17

endheader
time	        VM	        VL	        RF	       GRA	        TA	   ADDLONG	   SEMIMEM	      BFLH	        GM	        GL	       TFL	   GLUTMAX	   GLUTMED	      PIRI	    OBTINT	        QF	
4.484	  0.349144	  0.539651	  0.082171	  0.294432	  0.847036	  0.000000	  0.401311	  0.528011	  0.000000	  0.181866	  0.000000	  0.451438	  0.227023	  0.133249	  0.054695	  0.048393	
4.4845	  0.352222	  0.542474	  0.082915	  0.292840	  0.840922	  0.000000	  0.401738	  0.528492	  0.000000	  0.183137	  0.000000	  0.454750	  0.226214	  0.133938	  0.055034	  0.048681	
4.485	  0.355303	  0.545220	  0.083664	  0.291260	  0.834713	  0.000000	  0.402188	  0.529031	  0.000000	  0.184422	  0.000000	  0.458065	  0.225423	  0.134630	  0.055375	  0.048970	
4.4855	  0.358384	  0.547891	  0.084418	  0.289692	  0.828411	  0.000000	  0.402662	  0.529630	  0.000000	  0.185721	  0.000000	  0.461383	  0.224652	  0.135326	  0.055719	  0.049261	
4.486	  0.361465	  0.550484	  0.085178	  0.288138	  0.822019	  0.000000	  0.403159	  0.530290	  0.000000	  0.187034	  0.000000	  0.464702	  0.223903	  0.136026	  0.056066	  0.049553	
4.4865	  0.364544	  0.553000	  0.085944	  0.286598	  0.815540	  0.000000	  0.403681	  0.531012	  0.000000	  0.188361	  0.000000	  0.468021	  0.223176	  0.136728	  0.056416	  0.049846	
4.487	  0.367620	  0.555439	  0.086715	  0.285074	  0.808976	  0.000000	  0.404228	  0.531796	  0.000000	  0.189704	  0.000000	  0.471340	  0.222472	  0.137433	  0.056770	  0.050140	
4.4875	  0.370691	  0.557802	  0.087491	  0.283565	  0.802332	  0.000000	  0.404800	  0.532644	  0.000000	  0.191062	  0.000000	  0.474656	  0.221793	  0.138140	  0.057126	  0.050435	
4.488	  0.373757	  0.560090	  0.088272	  0.282073	  0.795609	  0.000000	  0.405397	  0.533555	  0.000000	  0.192435	  0.000000	  0.477969	  0.221141	  0.138850	  0.057486	  0.050732	
4.4885	  0.376815	  0.562304	  0.089058	  0.280598	  0.788809	  0.000000	  0.406020	  0.534531	  0.000000	  0.193824	  0.000000	  0.481278	  0.220516	  0.139562	  0.057849	  0.051028	
4.489	  0.379864	  0.564445	  0.089849	  0.279140	  0.781937	  0.000000	  0.406669	  0.535571	  0.000000	  0.195228	  0.000000	  0.484581	  0.219919	  0.140276	  0.058216	  0.051326	
4.4895	  0.382903	  0.566513	  0.090645	  0.277701	  0.774993	  0.000000	  0.407342	  0.536676	  0.000000	  0.196649	  0.000000	  0.487878	  0.219353	  0.140991	  0.058586	  0.051624	
4.49	  0.385930	  0.568511	  0.091446	  0.276281	  0.767980	  0.000000	  0.408042	  0.537847	  0.000000	  0.198086	  0.000000	  0.491168	  0.218817	  0.141707	  0.058960	  0.051922	
4.4905	  0.388943	  0.570440	  0.092251	  0.274879	  0.760901	  0.000000	  0.408766	  0.539082	  0.000000	  0.199539	  0.000000	  0.494448	  0.218314	  0.142424	  0.059338	  0.052221	
4.491	  0.391942	  0.572301	  0.093061	  0.273497	  0.753757	  0.000000	  0.409516	  0.540381	  0.000000	  0.201008	  0.000000	  0.497718	  0.217844	  0.143142	  0.059719	  0.052521	
4.4915	  0.394924	  0.574097	  0.093875	  0.272135	  0.746550	  0.000000	  0.410290	  0.541746	  0.000000	  0.202494	  0.000000	  0.500977	  0.217408	  0.143860	  0.060105	  0.052821	
4.492	  0.397888	  0.575829	  0.094693	  0.270793	  0.739283	  0.000000	  0.411089	  0.543175	  0.000000	  0.203996	  0.000000	  0.504221	  0.217007	  0.144577	  0.060494	  0.053122	
4.4925	  0.400834	  0.577500	  0.095516	  0.269471	  0.731959	  0.000000	  0.411913	  0.544668	  0.000000	  0.205514	  0.000000	  0.507450	  0.216642	  0.145294	  0.060886	  0.053423	
4.493	  0.403759	  0.579111	  0.096342	  0.268171	  0.724579	  0.000000	  0.412761	  0.546224	  0.000000	  0.207048	  0.000000	  0.510663	  0.216315	  0.146010	  0.061283	  0.053725	
4.4935	  0.406663	  0.580664	  0.097172	  0.266892	  0.717144	  0.000000	  0.413633	  0.547843	  0.000000	  0.208598	  0.000000	  0.513855	  0.216026	  0.146725	  0.061684	  0.054027	
4.494	  0.409545	  0.582160	  0.098006	  0.265635	  0.709658	  0.000000	  0.414528	  0.549524	  0.000000	  0.210165	  0.000000	  0.517027	  0.215776	  0.147437	  0.062088	  0.054330	
4.4945	  0.412404	  0.583600	  0.098843	  0.264400	  0.702122	  0.000000	  0.415447	  0.551267	  0.000000	  0.211747	  0.000000	  0.520176	  0.215566	  0.148147	  0.062496	  0.054633	
4.495	  0.415238	  0.584987	  0.099684	  0.263189	  0.694539	  0.000000	  0.416389	  0.553071	  0.000000	  0.213345	  0.000000	  0.523299	  0.215397	  0.148853	  0.062908	  0.054936	
4.4955	  0.418046	  0.586320	  0.100528	  0.262001	  0.686909	  0.000000	  0.417354	  0.554934	  0.000000	  0.214958	  0.000000	  0.526394	  0.215268	  0.149556	  0.063324	  0.055240	
4.496	  0.420828	  0.587602	  0.101375	  0.260837	  0.679237	  0.000000	  0.418343	  0.556856	  0.000000	  0.216587	  0.000000	  0.529460	  0.215182	  0.150255	  0.063743	  0.055545	
4.4965	  0.423582	  0.588833	  0.102226	  0.259697	  0.671522	  0.000000	  0.419355	  0.558835	  0.000000	  0.218231	  0.000000	  0.532493	  0.215138	  0.150950	  0.064167	  0.055850	
4.497	  0.426307	  0.590015	  0.103079	  0.258583	  0.663769	  0.000000	  0.420390	  0.560872	  0.000000	  0.219890	  0.000000	  0.535491	  0.215137	  0.151639	  0.064593	  0.056155	
4.4975	  0.429002	  0.591147	  0.103935	  0.257494	  0.655978	  0.000000	  0.421448	  0.562963	  0.000000	  0.221563	  0.000000	  0.538451	  0.215179	  0.152322	  0.065024	  0.056460	
4.498	  0.431667	  0.592231	  0.104794	  0.256431	  0.648152	  0.000000	  0.422529	  0.565108	  0.000000	  0.223251	  0.000000	  0.541372	  0.215265	  0.152999	  0.065458	  0.056765	
4.4985	  0.434300	  0.593267	  0.105656	  0.255394	  0.640293	  0.000000	  0.423634	  0.567305	  0.000000	  0.224953	  0.000000	  0.544251	  0.215395	  0.153670	  0.065895	  0.057070	
4.499	  0.436900	  0.594256	  0.106520	  0.254383	  0.632404	  0.000000	  0.424761	  0.569554	  0.000000	  0.226668	  0.000000	  0.547086	  0.215569	  0.154334	  0.066336	  0.057375	
4.4995	  0.439466	  0.595198	  0.107386	  0.253398	  0.624488	  0.000000	  0.425909	  0.571852	  0.000000	  0.228398	  0.000000	  0.549872	  0.215789	  0.154990	  0.066780	  0.057680	
4.5	  0.441997	  0.596095	  0.108254	  0.252440	  0.616547	  0.000000	  0.427080	  0.574198	  0.000000	  0.230141	  0.000000	  0.552609	  0.216053	  0.155639	  0.067226	  0.057985	
4.5005	  0.444491	  0.596947	  0.109123	  0.251508	  0.608585	  0.000000	  0.428272	  0.576590	  0.000000	  0.231898	  0.000000	  0.555292	  0.216363	  0.156279	  0.067676	  0.058290	
4.501	  0.446947	  0.597754	  0.109994	  0.250603	  0.600607	  0.000000	  0.429484	  0.579026	  0.000000	  0.233669	  0.000000	  0.557918	  0.216717	  0.156910	  0.068129	  0.058595	
4.5015	  0.449365	  0.598519	  0.110867	  0.249725	  0.592616	  0.000000	  0.430715	  0.581505	  0.000000	  0.235452	  0.000000	  0.560486	  0.217118	  0.157532	  0.068584	  0.058899	
4.502	  0.451743	  0.599241	  0.111740	  0.248873	  0.584615	  0.000000	  0.431966	  0.584026	  0.000000	  0.237250	  0.000000	  0.562991	  0.217563	  0.158144	  0.069042	  0.059203	
4.5025	  0.454080	  0.599922	  0.112613	  0.248048	  0.576608	  0.000000	  0.433235	  0.586585	  0.000000	  0.239061	  0.000000	  0.565431	  0.218054	  0.158745	  0.069502	  0.059506	
4.503	  0.456376	  0.600563	  0.113487	  0.247250	  0.568601	  0.000000	  0.434520	  0.589182	  0.000000	  0.240885	  0.000000	  0.567802	  0.218590	  0.159336	  0.069964	  0.059809	
4.5035	  0.458630	  0.601167	  0.114361	  0.246479	  0.560596	  0.000000	  0.435822	  0.591814	  0.000000	  0.242723	  0.000000	  0.570102	  0.219171	  0.159916	  0.070429	  0.060111	
4.504	  0.460842	  0.601734	  0.115235	  0.245734	  0.552597	  0.000000	  0.437138	  0.594478	  0.000000	  0.244575	  0.000000	  0.572328	  0.219797	  0.160484	  0.070895	  0.060413	
4.5045	  0.463012	  0.602265	  0.116107	  0.245016	  0.544608	  0.000000	  0.438468	  0.597174	  0.000000	  0.246440	  0.000000	  0.574478	  0.220467	  0.161039	  0.071363	  0.060714	
4.505	  0.465141	  0.602764	  0.116979	  0.244324	  0.536633	  0.000000	  0.439810	  0.599897	  0.000000	  0.248320	  0.000000	  0.576547	  0.221182	  0.161582	  0.071833	  0.061014	
4.5055	  0.467228	  0.603230	  0.117848	  0.243658	  0.528675	  0.000000	  0.441164	  0.602646	  0.000000	  0.250212	  0.000000	  0.578535	  0.221940	  0.162112	  0.072304	  0.061313	
4.506	  0.469273	  0.603666	  0.118716	  0.243018	  0.520737	  0.000000	  0.442527	  0.605417	  0.000000	  0.252119	  0.000000	  0.580438	  0.222742	  0.162627	  0.072777	  0.061611	
4.5065	  0.471277	  0.604075	  0.119582	  0.242403	  0.512824	  0.000000	  0.443900	  0.608208	  0.000000	  0.254039	  0.000000	  0.582254	  0.223587	  0.163129	  0.073251	  0.061909	
4.507	  0.473239	  0.604457	  0.120445	  0.241815	  0.504938	  0.000000	  0.445282	  0.611016	  0.000000	  0.255973	  0.000000	  0.583982	  0.224474	  0.163617	  0.073725	  0.062205	
4.5075	  0.475159	  0.604815	  0.121305	  0.241251	  0.497082	  0.000000	  0.446670	  0.613837	  0.000000	  0.257920	  0.000000	  0.585619	  0.225402	  0.164090	  0.074201	  0.062501	
4.508	  0.477037	  0.605151	  0.122161	  0.240711	  0.489261	  0.000000	  0.448065	  0.616670	  0.000000	  0.259882	  0.000000	  0.587163	  0.226372	  0.164549	  0.074678	  0.062795	
